<svg xmlns="http://www.w3.org/2000/svg" viewBox="0 0 100 100" fill="none">
  <defs>
    <linearGradient id="electronGrad" x1="0%" y1="0%" x2="100%" y2="100%">
      <stop offset="0%" style="stop-color:#9FEAF9;stop-opacity:1" />
      <stop offset="100%" style="stop-color:#47848F;stop-opacity:1" />
    </linearGradient>
  </defs>

  <!-- Complex Graph Edges -->
  <g stroke="url(#electronGrad)" stroke-width="2" opacity="0.8">
    <!-- Central Hub Connections -->
    <line x1="40" y1="40" x2="40" y2="15" />
    <line x1="40" y1="40" x2="65" y2="25" />
    <line x1="40" y1="40" x2="60" y2="55" />
    <line x1="40" y1="40" x2="25" y2="60" />
    <line x1="40" y1="40" x2="15" y2="35" />
    
    <!-- Outer Connections -->
    <line x1="40" y1="15" x2="65" y2="25" />
    <line x1="65" y1="25" x2="60" y2="55" />
    <line x1="60" y1="55" x2="25" y2="60" />
    <line x1="25" y1="60" x2="15" y2="35" />
    <line x1="15" y1="35" x2="40" y2="15" />
    
    <!-- Extra Cross Connections -->
    <line x1="40" y1="15" x2="15" y2="15" />
    <line x1="15" y1="15" x2="15" y2="35" />
    <line x1="65" y1="25" x2="80" y2="15" />
    <line x1="25" y1="60" x2="15" y2="75" />
  </g>

  <!-- Graph Nodes -->
  <g fill="#2B2E3A" stroke="#9FEAF9" stroke-width="1.5">
    <circle cx="40" cy="40" r="5" /> <!-- Center -->
    <circle cx="40" cy="15" r="4" />
    <circle cx="65" cy="25" r="4" />
    <circle cx="60" cy="55" r="4" />
    <circle cx="25" cy="60" r="4" />
    <circle cx="15" cy="35" r="4" />
    
    <!-- Satellite Nodes -->
    <circle cx="80" cy="15" r="3" />
    <circle cx="15" cy="75" r="3" />
  </g>

  <!-- Magnifying Glass (Bottom Right) -->
  <g transform="translate(20, 15)">
    <circle cx="40" cy="40" r="18" stroke="#9FEAF9" stroke-width="5" fill="#2B2E3A" fill-opacity="0.4" />
    <line x1="54" y1="54" x2="75" y2="75" stroke="#9FEAF9" stroke-width="7" stroke-linecap="round" />
    <!-- Glass Reflection -->
    <path d="M32 32 Q 40 24 48 32" stroke="white" stroke-width="2" stroke-opacity="0.6" fill="none" />
  </g>
</svg>